# xmcd
#
# Track frame offsets:
#	150
#	11922
#	24023
#	36108
#	51077
#	61643
#	73115
#	83765
#	97376
#	110107
#	122737
#	133006
#	150319
#	167583
#	179096
#
# Disc length: 2687 seconds
# Revision: 0
# Processed by: cddbd v1.5.2PL0 Copyright (c) Steve Scherf et al.
# Submitted via: dBpowerAMP V12.0
#
DISCID=c70a7d0f
DTITLE=Various Artist - Country 2
DYEAR=2008
DGENRE=Country
TTITLE0=Johnny Cash - Ring Of Fire
TTITLE1=Tammy Wynette - Stand By Your Man
TTITLE2=Elvis Presley - I Love You Because
TTITLE3=Mary Chapin Carpenter - Passionate Kisses
TTITLE4=Willie Nelson - Blue Eyes Crying In The Rain
TTITLE5=Crystal Gayle - Don't It Make My Brown Eyes Blue
TTITLE6=The Everly Brothers - I'm On My Way Home Again
TTITLE7=Merle Haggard - Big City
TTITLE8=Lynn Anderson - Rose Garden
TTITLE9=Dwight Yoakam - Honky Tonk Man
TTITLE10=Chet Atkins - Mister Sandman
TTITLE11=Mandy Barnett - Rainy Days
TTITLE12=Blake Shelton - Austin
TTITLE13=Travis Tritt - Here's A Quarter (Call Someone Who Cares)
TTITLE14=Beth Nielsen Chapman - Beyond The Blue
EXTD=
EXTT0=
EXTT1=
EXTT2=
EXTT3=
EXTT4=
EXTT5=
EXTT6=
EXTT7=
EXTT8=
EXTT9=
EXTT10=
EXTT11=
EXTT12=
EXTT13=
EXTT14=
PLAYORDER=
